<?xml version="1.0" encoding="utf-8"?>
<!-- Generator: Adobe Illustrator 26.2.1, SVG Export Plug-In . SVG Version: 6.00 Build 0)  -->
<svg version="1.1" id="a" xmlns="http://www.w3.org/2000/svg" xmlns:xlink="http://www.w3.org/1999/xlink" x="0px" y="0px"
	 viewBox="0 0 150 199.9" style="enable-background:new 0 0 150 199.9;" xml:space="preserve">
<style type="text/css">
	.st0{fill:#614124;}
	.st1{fill:#89694E;}
</style>
<path class="st0" d="M75,0L75,0c41.4,0,75,33.6,75,75v50c0,41.4-33.6,75-75,75l0,0c-41.4,0-75-33.6-75-75V75C0,33.6,33.6,0,75,0z"/>
<path class="st1" d="M75,0L75,0c41.4,0,75,33.6,75,75l0,0c0,41.4-33.6,75-75,75l0,0c-41.4,0-75-33.6-75-75l0,0C0,33.6,33.6,0,75,0z"
	/>
<path class="st0" d="M75.3,37.3L75.3,37.3c20.7,0,37.5,16.8,37.5,37.5l0,0c0,20.7-16.8,37.5-37.5,37.5l0,0
	c-20.7,0-37.5-16.8-37.5-37.5l0,0C37.8,54,54.6,37.3,75.3,37.3z"/>
</svg>
