<?xml version="1.0" encoding="utf-8"?>
<!-- Generator: Adobe Illustrator 26.2.1, SVG Export Plug-In . SVG Version: 6.00 Build 0)  -->
<svg version="1.1" id="a" xmlns="http://www.w3.org/2000/svg" xmlns:xlink="http://www.w3.org/1999/xlink" x="0px" y="0px"
	 viewBox="0 0 150 250" style="enable-background:new 0 0 150 250;" xml:space="preserve">
<style type="text/css">
	.st0{fill:#614124;}
	.st1{fill:#89694E;}
</style>
<path class="st0" d="M15,0h120c8.3,0,15,6.7,15,15v220c0,8.3-6.7,15-15,15H15c-8.3,0-15-6.7-15-15V15C0,6.7,6.7,0,15,0z"/>
<path class="st1" d="M15,0h120c8.3,0,15,6.7,15,15v120c0,8.3-6.7,15-15,15H15c-8.3,0-15-6.7-15-15V15C0,6.7,6.7,0,15,0z"/>
<path class="st0" d="M75.3,28.8L75.3,28.8c24.9,0,45,20.1,45,45l0,0c0,24.9-20.1,45-45,45l0,0c-24.9,0-45-20.1-45-45l0,0
	C30.3,48.9,50.5,28.8,75.3,28.8z"/>
</svg>
