<?xml version="1.0" encoding="utf-8"?>
<!-- Generator: Adobe Illustrator 26.2.1, SVG Export Plug-In . SVG Version: 6.00 Build 0)  -->
<svg version="1.1" id="a" xmlns="http://www.w3.org/2000/svg" xmlns:xlink="http://www.w3.org/1999/xlink" x="0px" y="0px"
	 viewBox="0 0 151 200" style="enable-background:new 0 0 151 200;" xml:space="preserve">
<style type="text/css">
	.st0{fill:#E8C07D;}
	.st1{fill:#EAD6B9;}
</style>
<path class="st0" d="M16,0h120c8.3,0,15,6.7,15,15v170c0,8.3-6.7,15-15,15H16c-8.3,0-15-6.7-15-15V15C1,6.7,7.8,0,16,0z"/>
<path class="st1" d="M16,0h120c8.3,0,15,6.7,15,15v120c0,8.3-6.7,15-15,15H16c-8.3,0-15-6.7-15-15V15C1,6.7,7.8,0,16,0z"/>
<path class="st0" d="M76.4,29.8L76.4,29.8c24.9,0,45,20.1,45,45l0,0c0,24.9-20.1,45-45,45l0,0c-24.9,0-45-20.1-45-45l0,0
	C31.4,49.9,51.5,29.8,76.4,29.8z"/>
</svg>
